<?xml version="1.0" encoding="utf-8"?>
<!-- Generator: Adobe Illustrator 23.0.1, SVG Export Plug-In . SVG Version: 6.00 Build 0)  -->
<svg version="1.1" id="Layer_1" xmlns="http://www.w3.org/2000/svg" xmlns:xlink="http://www.w3.org/1999/xlink" x="0px" y="0px"
	 viewBox="0 0 228 228" style="enable-background:new 0 0 228 228;" xml:space="preserve">
<title>Favicon</title>
<metadata><?xpacket begin="﻿" id="W5M0MpCehiHzreSzNTczkc9d"?>
<x:xmpmeta xmlns:x="adobe:ns:meta/" x:xmptk="Adobe XMP Core 8.0-c001 1.000000, 0000/00/00-00:00:00        ">
   <rdf:RDF xmlns:rdf="http://www.w3.org/1999/02/22-rdf-syntax-ns#">
      <rdf:Description rdf:about=""
            xmlns:cq="http://www.day.com/jcr/cq/1.0"
            xmlns:xmp="http://ns.adobe.com/xap/1.0/"
            xmlns:dc="http://purl.org/dc/elements/1.1/"
            xmlns:tiff="http://ns.adobe.com/tiff/1.0/"
            xmlns:xmpRights="http://ns.adobe.com/xap/1.0/rights/">
         <cq:lastReplicationAction_scene7>Activate</cq:lastReplicationAction_scene7>
         <cq:lastReplicatedBy>workflow-process-service</cq:lastReplicatedBy>
         <cq:lastReplicatedBy_publish>workflow-process-service</cq:lastReplicatedBy_publish>
         <cq:lastReplicationAction_publish>Activate</cq:lastReplicationAction_publish>
         <cq:lastReplicated_publish>2025-05-28T17:42:37.161Z</cq:lastReplicated_publish>
         <cq:lastReplicated_scene7>2025-05-28T17:42:37.161Z</cq:lastReplicated_scene7>
         <cq:lastReplicatedBy_scene7>workflow-process-service</cq:lastReplicatedBy_scene7>
         <cq:lastReplicationAction>Activate</cq:lastReplicationAction>
         <cq:lastReplicated>2025-05-28T17:42:37.161Z</cq:lastReplicated>
         <cq:isDelivered>false</cq:isDelivered>
         <xmp:rhcc-file-last-modified>2025-01-24T16:11:27.981Z</xmp:rhcc-file-last-modified>
         <xmp:rhcc-effective-on-set-on-upload>true</xmp:rhcc-effective-on-set-on-upload>
         <xmp:rhcc-published-asset-email-sent>true</xmp:rhcc-published-asset-email-sent>
         <xmp:rhcc-translation-id>TRAb460223d-4206-4d45-9941-8dbfa763b6a7</xmp:rhcc-translation-id>
         <xmp:rhcc-metadata-complete-moderator>pending</xmp:rhcc-metadata-complete-moderator>
         <xmp:brand-logo-version>Hat only</xmp:brand-logo-version>
         <xmp:brand-content-type>Logo</xmp:brand-content-type>
         <xmp:CreateDate>2023-12-08T20:33:50.450Z</xmp:CreateDate>
         <xmp:rhcc-uploaded-by>pmeilleu@redhat.com</xmp:rhcc-uploaded-by>
         <xmp:rhcc-notify-portal-subscribers-on-change>yes</xmp:rhcc-notify-portal-subscribers-on-change>
         <xmp:rhcc-derivative-id>DERb460223d-4206-4d45-9941-8dbfa763b6a7</xmp:rhcc-derivative-id>
         <xmp:rhcc-effective-on>2023-12-08T20:33:50.450Z</xmp:rhcc-effective-on>
         <xmp:brand-content-subtype>Red Hat</xmp:brand-content-subtype>
         <xmp:brand-color-mode>RGB</xmp:brand-color-mode>
         <xmp:brand-logo-color>Standard</xmp:brand-logo-color>
         <xmp:rhcc-publish-url>https://content.redhat.com/content/dam/brand/logos/red-hat/favicon/RedHat_favicon_0319.svg</xmp:rhcc-publish-url>
         <xmp:rhcc-aspect-ratio>square</xmp:rhcc-aspect-ratio>
         <xmp:rhcc-metadata-complete-uploader>pending</xmp:rhcc-metadata-complete-uploader>
         <xmp:rhcc-audience>rhcc-audience:internal</xmp:rhcc-audience>
         <xmp:rhcc-rights-restricted>no</xmp:rhcc-rights-restricted>
         <xmp:brand-colorway>
            <rdf:Bag>
               <rdf:li>colorway:standard</rdf:li>
            </rdf:Bag>
         </xmp:brand-colorway>
         <dc:modified>2024-05-29T00:30:28.911Z</dc:modified>
         <dc:format>image/svg+xml</dc:format>
         <dc:title>
            <rdf:Alt>
               <rdf:li xml:lang="x-default">Favicon</rdf:li>
            </rdf:Alt>
         </dc:title>
         <tiff:ImageWidth>228</tiff:ImageWidth>
         <tiff:ImageLength>228</tiff:ImageLength>
         <xmpRights:UsageTerms>
            <rdf:Alt>
               <rdf:li xml:lang="x-default">Use the favicon to represent Red Hat in browser tabs.</rdf:li>
            </rdf:Alt>
         </xmpRights:UsageTerms>
      </rdf:Description>
   </rdf:RDF>
</x:xmpmeta>
                                                                                                    
                                                                                                    
                                                                                                    
                                                                                                    
                                                                                                    
                                                                                                    
                                                                                                    
                                                                                                    
                                                                                                    
                                                                                                    
                                                                                                    
                                                                                                    
                                                                                                    
                                                                                                    
                                                                                                    
                                                                                         
<?xpacket end="w"?></metadata>
<style type="text/css">
	.st0{fill:#EE0000;}
</style>
<g>
	<g>
		<path d="M187.9,100.6c0.3,1.3,0.4,2.7,0.4,4.1c0,17.7-21.5,20.7-36.3,20.7c-57.8,0-100.8-35.9-100.8-46.8c0-0.7,0-1.5,0.3-2.3
			L47,87c-1,2.3-1.8,5.4-1.8,8.7c0,21.5,48.6,54,104.2,54c24.6,0,43.3-9.2,43.3-25.9c0-1.3,0-2.3-2-12L187.9,100.6z"/>
		<path class="st0" d="M151.9,125.4c14.8,0,36.3-3.1,36.3-20.7c0-1.4,0-2.7-0.4-4.1l-8.8-38.4c-2.1-8.4-3.8-12.3-18.7-19.7
			c-11.5-5.9-36.6-15.6-44-15.6c-6.9,0-9,9-17.1,9c-7.9,0-13.8-6.7-21.2-6.7c-7.2,0-11.8,4.9-15.4,14.8c0,0-10,28.2-11.3,32.2
			c-0.3,0.8-0.3,1.6-0.3,2.3C51.1,89.5,94.2,125.4,151.9,125.4 M190.6,111.9c2,9.7,2,10.7,2,12c0,16.6-18.7,25.9-43.3,25.9
			c-55.5,0-104.2-32.5-104.2-54c0-3.3,0.8-6.4,1.8-8.7c-20,1-45.8,4.6-45.8,27.4c0,37.4,88.6,83.4,158.7,83.4
			c53.8,0,67.3-24.3,67.3-43.5C227.2,139.3,214.1,122.1,190.6,111.9"/>
	</g>
</g>
</svg>
